<?xml version="1.0" encoding="UTF-8"?><svg id="Layer_1" xmlns="http://www.w3.org/2000/svg" viewBox="0 0 340.52 122.26"><defs><style>.cls-1{fill:#fff;}</style></defs><path class="cls-1" d="m120.92,48.42s-.05-.02-.07-.02c-2.53-12.04-8.62-22.73-17.11-31v37.08c-4.77,1.22-9.68,2.72-14.72,4.51-1.29.46-2.6.94-3.9,1.43V24.97l18.62-14.23h-8.06C85.84,3.98,73.92,0,61.09,0,27.34,0,0,27.36,0,61.09c0,24.85,14.83,46.22,36.11,55.76v-19.48c16.44-15.66,33.86-26.17,50.45-33.17,6.45-2.72,12.79-4.91,18.89-6.68,9.53-2.74,18.5-4.44,26.54-5.45-3.22-1.75-6.98-3.01-11.08-3.66m-66.18,27.41c-6.24,4.01-12.48,8.62-18.63,13.91v-36.53l18.63-14.21s0,36.83,0,36.83Z"/><path class="cls-1" d="m103.73,69.34h0v35.47c11.19-10.91,18.19-26.08,18.42-42.88-6.49,2.25-12.63,4.75-18.42,7.42"/><path class="cls-1" d="m85.11,83.93v-4.88c-26.85,15.75-43.13,33.17-47.68,38.38,7.28,3.06,15.27,4.75,23.66,4.75s16.65-1.75,24.03-4.91v-33.34h-.01Z"/><rect class="cls-1" x="145.83" y="20.7" width="7.71" height="35.98"/><path class="cls-1" d="m194.11,42.49h23.13v-7.72h-23.13v7.72Zm18.26,6.46v.02h-15.42c-3.43,0-5.13-1.71-5.13-5.14v-10.28c0-3.43,1.7-5.14,5.13-5.14h15.42v-7.71h-15.42c-8.56,0-12.84,4.28-12.84,12.85v10.28c0,8.57,4.29,12.85,12.84,12.85h23.13v-7.73h-7.71Z"/><path class="cls-1" d="m225.19,56.68V20.7h23.13c8.56,0,12.85,4.28,12.85,12.85v10.28c0,8.56-4.29,12.85-12.85,12.85h-23.13Zm7.71-28.27v20.56h15.42c3.42,0,5.14-1.71,5.14-5.14v-10.28c0-3.43-1.71-5.14-5.14-5.14,0,0-15.42,0-15.42,0Z"/><path class="cls-1" d="m279.13,49.02c-3.42,0-5.14-1.7-5.14-5.13v-10.28c0-3.43,1.71-5.14,5.14-5.14h15.42v-7.71h-15.42c-8.57,0-12.84,4.28-12.84,12.85v10.28c0,8.56,4.28,12.85,12.84,12.85h23.13v-7.72s-23.13,0-23.13,0Zm-2.84-6.49h23.13v-7.71h-23.13v7.71Z"/><path class="cls-1" d="m320.24,20.7c-8.56,0-12.85,4.29-12.85,12.86v23.13h7.72v-7.71h-.01v-15.42c0-3.43,1.71-5.15,5.14-5.15h15.42v-7.71s-15.42,0-15.42,0Zm-2.84,21.78h23.13v-7.71h-23.13v7.71Z"/><path class="cls-1" d="m165.38,79.74c0,1.61,0,2.93-.03,3.97s-.07,2.11-.17,3.19c-.1,1.09-.19,1.95-.3,2.58-.11.63-.3,1.28-.59,1.95-.29.66-.57,1.16-.85,1.48-.28.33-.7.66-1.26,1s-1.12.57-1.65.69c-.54.12-1.27.24-2.2.35-.92.12-1.83.18-2.72.2s-2.01.03-3.37.03h-6.38v-26.27h9.1c1.48,0,2.73.06,3.76.18,1.02.12,1.94.35,2.74.69.81.34,1.45.76,1.93,1.26s.88,1.18,1.19,2.02.52,1.78.64,2.83c.11,1.05.17,2.33.17,3.84m-3.54.05v-2.33c0-.48-.05-1.07-.12-1.79-.08-.72-.18-1.21-.32-1.47-.14-.26-.35-.6-.64-1.01-.3-.41-.64-.67-1.03-.79-.4-.11-.91-.25-1.55-.42s-1.36-.27-2.14-.3c-.79-.03-1.75-.05-2.87-.05h-3.7v20.86h4.23c1.01,0,1.8,0,2.36-.03.56-.02,1.17-.07,1.83-.15s1.14-.19,1.46-.33c.31-.14.65-.35,1.01-.64s.62-.62.76-.99c.14-.37.28-.86.42-1.46.14-.61.23-1.27.26-2,.04-.73.05-1.61.05-2.64v-4.46h0Z"/><path class="cls-1" d="m185.58,85.24c-1.41.14-2.28.22-2.63.25h-9.61c0,1.7.06,3.57.14,5.61.06.79.4,1.31,1.02,1.56.62.25,1.82.38,3.6.38.67,0,1.25-.03,1.73-.08s.87-.15,1.17-.28.54-.26.71-.38c.17-.13.29-.32.37-.58s.13-.49.16-.67c.02-.18.05-.46.07-.83s.05-.67.09-.91l2.7.5c-.02.82-.08,1.52-.18,2.09-.09.57-.25,1.07-.47,1.51-.22.43-.49.78-.79,1.03-.31.25-.72.46-1.24.62-.52.17-1.09.28-1.71.33-.62.06-1.39.08-2.31.08-1.18,0-2.2-.07-3.07-.21-.87-.13-1.61-.3-2.23-.5s-1.12-.53-1.53-.98c-.4-.45-.71-.88-.94-1.29s-.4-1.02-.5-1.82-.17-1.53-.2-2.18-.04-1.55-.04-2.71c0-1.62.02-2.89.06-3.79.04-.91.16-1.81.35-2.72s.44-1.57.76-1.98c.32-.41.79-.79,1.41-1.15.62-.35,1.36-.58,2.2-.68.85-.1,1.92-.15,3.23-.15.91,0,1.69.03,2.35.08s1.26.16,1.82.33c.55.16,1.01.35,1.36.56.36.21.68.52.95.93.28.41.49.84.64,1.28.14.44.27,1.03.36,1.75.09.73.15,1.47.17,2.21s.04,1.68.04,2.79m-12.22-1.61h8.74c-.02-1.51-.08-2.88-.17-4.13-.05-.71-.36-1.2-.93-1.44-.57-.24-1.61-.36-3.13-.36-1.68,0-2.74.09-3.19.28-.2.06-.37.16-.52.31-.15.15-.27.36-.36.63s-.17.52-.22.76c-.05.23-.09.56-.12.98-.03.42-.05.74-.06.97s-.02.58-.03,1.05v.95"/><path class="cls-1" d="m198.91,75.4l-.14,2.94c-.45-.06-.87-.09-1.27-.09-.84,0-1.51.08-2.03.25-.52.16-.91.45-1.17.85s-.44.85-.53,1.36-.13,1.2-.13,2.05c0,.48.02,1.19.06,2.11s.06,1.59.06,1.99v8.3h-3.47v-19.34h3.15l.35,2.17c.37-.85.92-1.5,1.66-1.97.74-.46,1.63-.7,2.66-.7.26,0,.52.02.79.05"/><path class="cls-1" d="m218.23,95.18h-3.47v-13.52c0-.45-.03-.91-.07-1.36-.04-.46-.08-.8-.13-1.03-.04-.23-.13-.46-.25-.69s-.25-.38-.38-.47c-.13-.08-.32-.16-.56-.24-.25-.08-.5-.12-.74-.13s-.57-.02-.99-.02c-.89,0-1.65.05-2.28.15s-1.15.24-1.54.42c-.4.18-.71.42-.93.74-.22.32-.37.66-.45,1.03-.08.37-.12.83-.12,1.37,0,.31.02.84.05,1.6.04.76.06,1.37.06,1.84v10.31h-3.48v-19.34h3.18l.34,2.17c.3-.96.98-1.66,2.03-2.08,1.04-.42,2.29-.64,3.74-.64.68,0,1.29.04,1.82.12.53.08,1,.22,1.41.42.41.19.77.42,1.07.66.3.25.55.57.76.98.21.4.37.82.5,1.24s.23.95.3,1.59.12,1.27.14,1.9c.02.63.04,1.38.04,2.25v10.74h-.05Z"/><path class="cls-1" d="m238.76,85.24c-1.41.14-2.28.22-2.63.25h-9.61c0,1.7.06,3.57.14,5.61.06.79.4,1.31,1.02,1.56.62.25,1.82.38,3.6.38.67,0,1.25-.03,1.73-.08s.87-.15,1.17-.28.54-.26.71-.38c.17-.13.29-.32.37-.58s.13-.49.16-.67c.02-.18.05-.46.07-.83s.05-.67.09-.91l2.7.5c-.02.82-.08,1.52-.18,2.09-.1.57-.25,1.07-.48,1.51-.22.43-.49.78-.79,1.03-.31.25-.72.46-1.24.62-.52.17-1.09.28-1.71.33-.62.06-1.39.08-2.31.08-1.18,0-2.2-.07-3.07-.21-.87-.13-1.61-.3-2.23-.5s-1.13-.53-1.52-.98c-.4-.45-.72-.88-.95-1.29s-.4-1.02-.5-1.82c-.11-.8-.17-1.53-.2-2.18s-.04-1.55-.04-2.71c0-1.62.02-2.89.06-3.79.04-.91.16-1.81.34-2.72.19-.91.44-1.57.76-1.98.32-.41.78-.79,1.41-1.15.62-.35,1.36-.58,2.2-.68.85-.1,1.92-.15,3.23-.15.91,0,1.69.03,2.35.08s1.26.16,1.82.33c.55.16,1.01.35,1.37.56s.67.52.95.93.49.84.64,1.28c.14.44.27,1.03.36,1.75.09.73.15,1.47.17,2.21s.04,1.68.04,2.79m-12.22-1.61h8.74c-.02-1.51-.08-2.88-.17-4.13-.05-.71-.36-1.2-.93-1.44-.57-.24-1.61-.36-3.13-.36-1.68,0-2.74.09-3.19.28-.2.06-.37.16-.52.31-.15.15-.27.36-.36.63s-.16.52-.22.76c-.05.23-.09.56-.12.98-.03.42-.05.74-.06.97s-.02.58-.03,1.05v.95"/><path class="cls-1" d="m258.7,75.84v16.89c0,1.16-.04,2.14-.11,2.94-.08.8-.22,1.55-.42,2.24-.2.69-.48,1.25-.83,1.67-.35.42-.82.78-1.4,1.08s-1.27.52-2.05.64c-.79.12-1.73.18-2.84.18-2.3,0-4.14-.24-5.5-.72l.23-2.4c1.32.36,2.88.54,4.69.54.86,0,1.58-.05,2.18-.14.59-.09,1.06-.21,1.39-.35s.59-.34.78-.61c.18-.26.3-.52.35-.79.05-.26.08-.59.08-.99l-.02-3.15c-.32.82-.86,1.42-1.64,1.8-.78.38-1.87.57-3.28.57-1.01,0-1.89-.07-2.64-.21s-1.39-.32-1.92-.53-.97-.54-1.31-1c-.35-.45-.62-.88-.82-1.29-.2-.4-.35-.99-.44-1.75s-.15-1.44-.18-2.04c-.02-.6-.04-1.43-.04-2.48,0-1.33,0-2.37.04-3.12.02-.75.08-1.57.16-2.44.08-.88.22-1.54.41-1.99s.43-.9.73-1.36c.3-.47.69-.8,1.17-1s1.05-.37,1.7-.5,1.43-.19,2.34-.19c1.54,0,2.77.21,3.7.63s1.61,1.09,2.03,2.02l.33-2.15h3.16-.03Zm-14.51-7.63h2.5s-.02.11-.02.21c0,1.08.19,1.82.56,2.24.37.41,1.09.62,2.16.62s1.8-.22,2.17-.64c.37-.43.55-1.24.55-2.43h2.5c0,1.99-.45,3.37-1.35,4.13-.9.77-2.4,1.16-4.52,1.16-1.39,0-2.49-.42-3.32-1.26-.82-.84-1.23-2.18-1.23-4.03m11.04,23.04v-10.76c0-.99-.33-1.69-.98-2.12s-1.82-.64-3.5-.64-2.78.15-3.39.44c-.66.32-.98,1.61-.98,3.86,0,3.4.05,6.36.14,8.89.04.55.18.96.43,1.22s.69.44,1.29.54c.61.1,1.57.15,2.88.15,2.62,0,3.99-.52,4.11-1.57"/><path class="cls-1" d="m267.78,71.41h-3.47v-3.05h3.47v3.05Zm0,23.77h-3.47v-19.34h3.47v19.34Z"/><polygon class="cls-1" points="178.96 20.7 178.96 56.69 171.26 56.69 171.26 42.47 155.83 42.47 155.83 34.76 171.26 34.76 171.26 20.7 178.96 20.7"/></svg>